<?xml version="1.0" standalone="no"?>
<!DOCTYPE svg PUBLIC "-//W3C//DTD SVG 20010904//EN"
 "http://www.w3.org/TR/2001/REC-SVG-20010904/DTD/svg10.dtd">
<svg version="1.0" xmlns="http://www.w3.org/2000/svg"
 width="310.000000pt" height="310.000000pt" viewBox="0 0 310.000000 310.000000"
 preserveAspectRatio="xMidYMid meet">
<metadata>
Created by potrace 1.14, written by Peter Selinger 2001-2017
</metadata>
<g transform="translate(0.000000,310.000000) scale(0.100000,-0.100000)"
fill="#000000" stroke="none">
<path d="M1191 2655 c-29 -14 -88 -37 -130 -52 -42 -14 -82 -31 -88 -36 -24
-18 -13 -46 30 -75 77 -54 72 6 72 -868 l0 -784 -25 -25 c-17 -17 -42 -27 -79
-32 -56 -8 -79 -27 -68 -57 6 -14 36 -16 281 -16 268 0 275 0 281 20 9 28 -11
50 -44 50 -14 0 -43 5 -63 11 -63 17 -72 45 -75 249 -5 208 1 226 62 223 21
-2 47 -11 58 -20 11 -10 96 -106 189 -213 115 -134 168 -201 166 -215 -2 -16
-15 -22 -55 -30 -61 -12 -78 -25 -68 -54 6 -21 11 -21 290 -21 242 0 284 2
289 15 10 27 -5 45 -48 55 -106 27 -123 39 -235 158 -130 139 -335 377 -353
411 -12 23 -7 29 118 150 168 162 248 218 346 240 71 16 73 18 73 46 l0 30
-75 -3 c-41 -1 -158 -6 -260 -10 l-185 -7 0 -30 c0 -28 3 -30 57 -40 72 -13
87 -25 66 -57 -25 -39 -215 -243 -250 -270 -81 -62 -157 -77 -179 -36 -8 16
-10 191 -7 670 4 647 4 648 -17 648 -11 0 -44 -11 -74 -25z"/>
</g>
</svg>
